<svg width="256" height="320" viewBox="0 0 256 320" fill="none" xmlns="http://www.w3.org/2000/svg">
<mask id="mask0" mask-type="alpha" maskUnits="userSpaceOnUse" x="0" y="0" width="256" height="320">
<rect width="256" height="320" rx="32" fill="white"/>
</mask>
<g mask="url(#mask0)">
<path d="M195.414 204.805C194.452 202.944 189.371 191.382 189.371 191.382L180.857 169.32C180.857 169.32 174.815 160.017 174.815 158.289C174.815 156.562 163.829 149.651 163.829 149.651C163.829 149.651 154.903 146.993 154.216 146.727C153.53 146.461 142.956 142.963 142.956 142.963C142.956 142.963 138.792 137.488 138.199 138.918L138.198 138.922C138.177 138.885 138.155 138.854 138.133 138.817C137.282 137.227 136.743 135.49 136.546 133.698C136.523 133.538 136.504 133.37 136.483 133.204C139.226 131.345 141.474 128.846 143.032 125.922C144.591 122.999 145.413 119.739 145.428 116.426C145.426 115.554 145.367 114.682 145.252 113.818C145.327 113.771 145.406 113.729 145.488 113.693C145.659 113.619 145.616 113.559 145.49 113.496C145.533 113.473 145.576 113.449 145.619 113.431C145.847 113.332 145.695 113.257 145.475 113.168L145.488 113.162C145.798 113.027 145.406 112.938 145.091 112.796C145.074 112.704 145.059 112.611 145.04 112.52C145.11 112.345 145.153 112.16 145.167 111.972C145.195 111.986 145.22 112.001 145.25 112.014C145.326 111.672 145.324 111.316 145.244 110.975C145.224 111.044 145.2 111.112 145.172 111.179C145.192 110.869 145.128 110.56 144.988 110.283C144.847 110.006 144.635 109.772 144.373 109.605C144.357 109.592 144.34 109.577 144.324 109.563L144.906 103.601C153.494 103.195 155 88.5851 153.042 87.7734C151.083 86.9618 153.042 85.2032 153.042 81.686C153.042 78.1688 146.563 74.2458 146.563 74.2458C146.563 74.2458 143.852 75.5986 139.633 68.8348C135.415 62.0709 119.897 60.9887 118.843 62.7473C117.788 64.5059 110.858 66.8056 101.819 69.3759C92.7795 71.9461 94.4366 82.633 95.9432 84.9326C97.1843 86.8339 97.911 89.0246 98.0524 91.2906C98.0524 92.6434 100.915 98.3249 100.915 98.3249C100.012 100.294 102.31 111.079 102.99 114.144C102.979 114.239 102.968 114.332 102.959 114.427C102.953 114.436 102.945 114.444 102.94 114.454C102.907 114.503 102.878 114.555 102.852 114.608C102.706 114.925 102.657 115.279 102.713 115.625C102.663 116.002 102.716 116.386 102.865 116.736C102.917 119.623 103.585 122.467 104.825 125.076C106.065 127.684 107.848 129.998 110.055 131.862C110.065 132.046 110.076 132.232 110.086 132.422C110.212 134.926 110.284 137.887 110.152 140.72C110.145 140.865 110.134 141.007 110.126 141.151C109.628 141.252 109.16 141.468 108.761 141.783C108.362 142.098 108.043 142.502 107.828 142.963C106.977 144.601 102.033 147.126 102.033 147.126C102.033 147.126 93.3819 147.525 92.558 149.119C91.734 150.714 79.2375 156.03 79.2375 156.03C79.2375 156.03 72.646 159.884 73.6072 164.27C74.1095 166.562 72.6995 170.122 71.2385 173.001C68.1828 171.842 65.0007 171.048 61.7586 170.637L68.7594 177.334C68.6127 177.563 68.5263 177.693 68.5263 177.693L64.5439 191.78C64.5439 191.78 63.1706 196.698 61.7974 197.894C60.4242 199.09 63.0333 209.988 63.0333 209.988C63.0333 209.988 61.5227 217.696 60.2868 219.689C59.0509 221.683 62.2094 226.6 62.2094 226.6L68.5263 240.953L85.2798 245.206C85.2798 245.206 86.3962 245.442 88.2003 245.829C88.1436 246.172 88.0855 246.514 88.0262 246.854C87.2188 251.426 86.1586 255.631 84.8678 256.768C81.7094 259.559 81.8467 272.052 81.8467 272.052L81.984 289.728C81.984 289.728 83.0826 311.523 82.5333 312.321C82.1866 312.824 82.8823 313.645 84.7182 314.382C84.6656 314.711 84.6142 315.043 84.5656 315.383C84.0493 318.998 83.8187 323.123 85.0051 324.946C85.5204 325.932 85.8022 327.024 85.8291 328.136C85.8291 329.864 88.4382 333.452 88.4382 333.452C88.4382 333.452 86.3784 348.204 89.8115 353.254C93.2445 358.304 96.1284 367.474 94.4805 369.601C94.4805 369.601 91.5967 375.847 92.9699 378.638C94.3431 381.429 92.9699 383.024 91.1847 383.688C89.3995 384.353 89.5533 389.802 89.5533 389.802L92.8326 415.717C92.8326 415.717 94.6178 421.033 93.1072 422.894C91.5967 424.754 91.5967 434.057 93.9312 437.247C96.2657 440.437 90.6354 446.284 90.6354 446.284C90.6354 446.284 87.2023 451.201 92.6953 452.796C92.6953 452.796 93.7939 453.062 91.734 455.188C89.6741 457.315 89.2622 459.973 90.6354 460.903C90.9201 461.074 91.218 461.222 91.5261 461.346C91.4751 461.661 91.4199 461.987 91.355 462.333C90.8276 465.108 89.8334 468.723 88.0262 470.472C84.5237 474.061 81.5012 478.088 79.0343 482.454C77.1502 486.027 76.3262 489.37 78.4136 490.939C83.3572 494.66 89.6741 495.856 93.3819 494.394C97.0896 492.932 102.308 488.414 102.308 488.414L103.544 483.23C103.544 483.23 102.72 480.041 106.84 478.845C110.959 477.649 114.804 473.396 114.804 473.396V466.506C115.802 465.936 116.765 465.308 117.688 464.624C117.688 464.624 119.611 457.847 117.688 455.587C115.766 453.328 115.079 452.53 117.551 451.069C120.023 449.607 120.358 446.417 118.545 443.626C116.727 440.835 113.843 436.715 116.315 430.868C118.787 425.02 119.693 407.079 119.693 407.079C119.693 407.079 118.54 394.852 119.693 392.061C120.847 389.27 118.375 383.688 118.375 383.688C118.375 383.688 119.199 376.777 120.709 373.588C122.22 370.398 123.456 353.52 123.456 353.52C123.456 353.52 126.202 346.343 126.202 341.692C126.202 337.04 121.945 325.877 128.262 322.953C128.262 322.953 131.009 325.345 129.91 334.914C129.91 334.914 133.068 346.077 133.068 349.533C133.068 352.988 135.403 365.481 135.403 365.481C135.403 365.481 135.678 369.468 136.639 370.93C137.6 372.392 136.639 376.379 136.639 376.379C136.639 376.379 140.209 379.701 139.248 381.828C138.287 383.954 139.413 388.749 139.413 388.749L138.561 418.508C138.561 418.508 136.09 431.267 141.857 438.975C141.857 438.975 139.797 450.271 138.561 451.069C137.325 451.866 143.093 458.777 143.093 458.777C143.093 458.777 141.494 463.254 144.741 463.473V470.871C145.868 472.862 147.414 474.586 149.273 475.921C152.294 478.047 151.058 485.357 151.058 485.357C151.058 485.357 154.903 494.66 165.065 492.666C175.227 490.673 176.6 489.743 176.051 486.42C175.853 485.208 175.414 483.044 174.782 480.588C173.689 476.32 172.014 471.168 170.009 468.627C166.85 464.625 164.241 456.252 164.241 456.252C164.241 456.252 163.005 453.461 164.241 452.531C165.477 451.6 164.928 449.873 164.928 449.873C164.928 449.873 166.131 446.417 165.048 444.291C163.966 442.164 167.125 437.779 167.125 437.779L166.164 417.312L167.125 387.542C167.125 387.542 162.868 382.625 164.653 379.701C166.438 376.777 162.593 372.658 162.593 372.658C162.593 372.658 162.181 372.525 163.28 369.202C163.937 367.244 163.839 365.111 163.005 363.222C163.005 363.222 160.671 354.982 164.79 348.736C164.79 348.736 166.576 340.496 167.125 336.243C167.504 333.287 169.877 322.246 171.289 315.787C171.368 315.422 171.445 315.072 171.518 314.738C173.552 314.85 175.09 314.979 175.09 314.979C175.09 314.979 171.931 293.05 175.09 288.532C178.248 284.013 172.618 249.459 172.618 249.459C172.618 249.459 171.272 243.42 170.443 237.259C170.395 236.908 170.352 236.557 170.308 236.206C172.858 236.002 175.417 235.946 177.973 236.036C184.565 236.435 191.019 233.91 191.156 231.385C191.294 228.86 194.864 218.892 195.414 216.633C195.963 214.373 196.375 206.665 195.414 204.805Z" fill="url(#paint0_linear)"/>
<path d="M170.727 311.794C170.727 311.794 170.309 313.742 169.711 316.568C168.351 322.999 166.064 333.992 165.699 336.935C165.17 341.169 163.45 349.373 163.45 349.373C159.48 355.592 161.73 363.796 161.73 363.796C162.534 365.684 162.628 367.799 161.994 369.751C160.936 373.059 161.333 373.191 161.333 373.191C161.333 373.191 165.038 377.293 163.317 380.204C161.597 383.115 165.699 388.011 165.699 388.011L164.773 417.651L165.699 438.028C165.699 438.028 162.656 442.395 163.698 444.512C164.741 446.629 163.582 450.069 163.582 450.069C163.582 450.069 164.111 451.789 162.92 452.716C161.73 453.642 162.92 456.421 162.92 456.421C159.877 455.362 154.452 459.993 147.307 462.904C140.161 465.815 142.543 458.935 142.543 458.935C142.543 458.935 136.986 452.054 138.176 451.26C139.367 450.466 141.352 439.219 141.352 439.219C135.795 431.544 138.176 418.842 138.176 418.842L138.997 389.212C138.997 389.212 137.912 384.438 138.838 382.321C139.764 380.204 136.324 376.896 136.324 376.896C136.324 376.896 137.25 372.926 136.324 371.471C135.398 370.015 135.133 366.046 135.133 366.046C135.133 366.046 132.884 353.607 132.884 350.167C132.884 346.727 129.84 335.612 129.84 335.612C130.899 326.085 128.252 323.703 128.252 323.703C122.166 326.614 126.268 337.729 126.268 342.36C126.268 346.991 123.621 354.137 123.621 354.137C123.621 354.137 122.43 370.942 120.975 374.117C119.519 377.293 118.725 384.174 118.725 384.174C118.725 384.174 121.107 389.731 119.996 392.51C118.884 395.289 119.996 407.462 119.996 407.462C119.996 407.462 119.122 425.325 116.74 431.147C114.359 436.97 117.137 441.072 118.889 443.85C120.636 446.629 120.313 449.805 117.931 451.26C115.55 452.716 116.211 453.51 118.064 455.759C119.916 458.009 118.064 464.757 118.064 464.757C118.064 464.757 110.521 470.711 107.213 468.065C103.905 465.419 93.3197 461.978 91.9965 461.052C90.6733 460.126 91.0702 457.479 93.055 455.362C95.0399 453.245 93.9813 452.98 93.9813 452.98C88.6885 451.393 91.9965 446.497 91.9965 446.497C91.9965 446.497 97.4216 440.675 95.1722 437.499C92.9227 434.323 92.9227 425.061 94.3783 423.208C95.8338 421.356 94.1136 416.063 94.1136 416.063L90.9538 390.26C90.9538 390.26 90.8056 384.835 92.5258 384.174C94.2459 383.512 95.5691 381.924 94.2459 379.145C92.9227 376.367 95.7015 370.148 95.7015 370.148C97.2893 368.03 94.5106 358.9 91.2025 353.872C87.8945 348.844 89.8793 334.156 89.8793 334.156C89.8793 334.156 87.3652 330.584 87.3652 328.863C87.3405 327.759 87.0692 326.674 86.5713 325.688C85.4281 323.872 85.6504 319.765 86.1479 316.166C86.6295 312.683 87.3652 309.677 87.3652 309.677L170.727 311.794Z" fill="#5F5D7E"/>
<path d="M144.792 161.875L118.725 167.961C118.725 167.961 105.89 157.111 109.066 151.289C110.156 149.288 110.638 145.874 110.802 142.265C110.929 139.444 110.86 136.495 110.738 134.003C110.553 130.398 110.257 127.736 110.257 127.736C110.257 127.736 136.986 112.651 136.059 127.736C135.871 130.248 135.93 132.772 136.234 135.273C136.423 137.052 136.942 138.78 137.764 140.37C139.193 142.916 140.955 142.953 140.955 142.953L144.792 161.875Z" fill="#FDC2CC"/>
<path opacity="0.1" d="M136.234 135.273C132.467 137.975 127.895 139.321 123.264 139.09C118.634 138.859 114.218 137.066 110.738 134.003C110.553 130.398 110.257 127.736 110.257 127.736C110.257 127.736 136.986 112.651 136.059 127.736C135.871 130.248 135.93 132.772 136.234 135.273V135.273Z" fill="black"/>
<path d="M124.283 138.586C135.61 138.586 144.793 129.404 144.793 118.076C144.793 106.749 135.61 97.5667 124.283 97.5667C112.956 97.5667 103.773 106.749 103.773 118.076C103.773 129.404 112.956 138.586 124.283 138.586Z" fill="#FDC2CC"/>
<path opacity="0.1" d="M144.792 161.875L118.725 167.961C118.725 167.961 105.89 157.111 109.066 151.289C110.156 149.288 110.638 145.874 110.802 142.265C111.377 145.404 113.063 148.231 115.55 150.23C121.504 154.2 120.578 159.096 120.578 159.096L131.296 158.699C130.634 154.332 134.604 151.951 135.927 151.421C137.25 150.892 136.589 148.51 136.589 148.51L137.764 140.37C139.193 142.916 140.955 142.953 140.955 142.953L144.792 161.875Z" fill="black"/>
<path opacity="0.1" d="M170.727 311.794C170.727 311.794 170.309 313.742 169.711 316.568C166.832 316.415 163.026 316.304 161.333 316.69C158.422 317.352 146.777 317.616 146.777 317.616L117.931 318.638V317.748C114.613 317.775 111.3 317.996 108.007 318.41C103.111 319.072 95.4369 318.145 90.541 317.352C89.034 317.136 87.5589 316.737 86.1479 316.166C86.6296 312.683 87.3653 309.677 87.3653 309.677L170.727 311.794Z" fill="black"/>
<path d="M168.478 227.77C168.06 230.242 168.367 234.339 168.896 238.382C169.695 244.517 170.992 250.53 170.992 250.53C170.992 250.53 176.417 284.933 173.374 289.432C170.33 293.931 173.374 315.764 173.374 315.764C173.374 315.764 164.244 314.97 161.333 315.631C158.422 316.293 146.777 316.558 146.777 316.558L117.931 317.579V316.69C114.613 316.717 111.3 316.938 108.007 317.352C103.111 318.013 95.4369 317.087 90.541 316.293C85.6451 315.499 83.6603 313.911 84.1896 313.117C84.7189 312.323 83.6603 290.623 83.6603 290.623L83.528 273.024C83.528 273.024 83.3957 260.586 86.439 257.807C87.6828 256.675 88.7044 252.488 89.4824 247.936C90.5992 241.346 91.2026 233.989 91.2026 233.989L71.0898 180.135L70.6929 179.076C70.6929 179.076 76.515 170.078 75.5887 165.712C74.6625 161.345 81.0139 157.508 81.0139 157.508C81.0139 157.508 93.0551 152.215 93.849 150.627C94.6429 149.039 102.979 148.643 102.979 148.643C102.979 148.643 107.743 146.128 108.563 144.498C108.763 144.043 109.068 143.642 109.454 143.328C109.839 143.014 110.294 142.796 110.781 142.693C111.341 145.871 113.036 148.737 115.55 150.76C121.504 154.729 120.578 159.625 120.578 159.625L131.296 159.228C130.634 154.862 134.604 152.48 135.927 151.951C137.25 151.421 136.589 149.039 136.589 149.039L137.827 140.47C138.399 139.047 142.411 144.498 142.411 144.498C142.411 144.498 152.599 147.981 153.261 148.246C153.923 148.51 162.524 151.157 162.524 151.157C162.524 151.157 173.109 158.037 173.109 159.757C173.109 161.478 178.931 170.74 178.931 170.74C178.931 170.74 178.862 171.111 178.735 171.788C177.391 179.082 169.447 222.081 168.478 227.77Z" fill="#2F302B"/>
<path d="M126.135 206.334C126.135 206.334 103.244 200.248 100.994 198.792C98.7449 197.337 85.5128 205.805 101.656 217.317C101.656 217.317 121.396 221.419 126.677 217.317C131.957 213.215 126.135 206.334 126.135 206.334Z" fill="#FDC2CC"/>
<path opacity="0.1" d="M175.623 170.078L178.402 170.211L186.606 192.176C186.606 192.176 191.502 203.688 192.428 205.54C193.354 207.393 192.957 215.068 192.428 217.317C191.899 219.566 188.458 229.49 188.326 232.005C188.194 234.519 181.975 237.033 175.623 236.636C169.272 236.239 154.452 238.224 154.452 238.224C154.452 238.224 138.625 236.569 128.914 241.532C128.914 241.532 122.695 228.697 123.357 204.747C123.357 204.747 134.339 204.085 137.118 205.143C139.897 206.202 153.393 209.245 155.114 207.658C156.834 206.07 164.641 210.569 164.641 210.569C165.038 209.696 165.243 208.749 165.243 207.79C165.243 206.831 165.038 205.884 164.641 205.011C163.317 201.835 161.068 191.911 163.979 188.736C166.89 185.56 175.623 170.078 175.623 170.078Z" fill="black"/>
<path opacity="0.1" d="M168.896 238.382C162.328 238.827 154.981 239.812 154.981 239.812C154.981 239.812 139.156 238.155 129.443 243.12C129.443 243.12 123.224 230.284 123.886 206.334C123.886 206.334 134.868 205.673 137.647 206.731C140.426 207.79 153.923 210.833 155.643 209.245C157.363 207.658 165.17 212.157 165.17 212.157C165.567 211.284 165.773 210.336 165.773 209.378C165.773 208.419 165.567 207.472 165.17 206.599C163.847 203.423 161.597 193.499 164.508 190.324C167.419 187.148 176.153 171.666 176.153 171.666L178.735 171.788C177.391 179.082 169.447 222.081 168.478 227.77C168.06 230.242 168.367 234.339 168.896 238.382Z" fill="black"/>
<path d="M176.153 170.608L178.931 170.74L187.135 192.705C187.135 192.705 192.031 204.217 192.957 206.07C193.884 207.922 193.487 215.597 192.957 217.846C192.428 220.096 188.988 230.02 188.855 232.534C188.723 235.048 182.504 237.562 176.153 237.165C169.801 236.768 154.981 238.753 154.981 238.753C154.981 238.753 139.154 237.099 129.443 242.061C129.443 242.061 123.224 229.226 123.886 205.276C123.886 205.276 134.868 204.614 137.647 205.673C140.426 206.731 153.923 209.775 155.643 208.187C157.363 206.599 165.17 211.098 165.17 211.098C165.567 210.225 165.773 209.278 165.773 208.319C165.773 207.361 165.567 206.413 165.17 205.54C163.847 202.365 161.597 192.441 164.508 189.265C167.419 186.089 176.153 170.608 176.153 170.608Z" fill="#2F302B"/>
<path d="M148.197 219.211L151.498 221.255L169.898 191.54L166.596 189.496L148.197 219.211Z" fill="#DFE6F5"/>
<path d="M179.332 187.516C182.584 182.264 182.234 176.158 178.55 173.877C174.867 171.597 169.245 174.005 165.993 179.257C162.742 184.508 163.092 190.614 166.775 192.895C170.458 195.176 176.08 192.767 179.332 187.516Z" fill="#DFE6F5"/>
<path opacity="0.1" d="M177.45 186.35C179.784 182.581 179.533 178.198 176.889 176.561C174.245 174.924 170.209 176.652 167.875 180.422C165.541 184.192 165.793 188.575 168.436 190.212C171.08 191.849 175.116 190.12 177.45 186.35Z" fill="black"/>
<path d="M138.793 234.399L142.094 236.443L153.543 217.954L150.241 215.909L138.793 234.399Z" fill="#53526B"/>
<path d="M119.387 235.71L127.458 233.46C127.458 233.46 167.287 234.519 153.923 218.111C153.923 218.111 146.91 211.363 132.222 216.788C117.534 222.213 113.432 222.874 113.432 222.874L119.387 235.71Z" fill="#FDC2CC"/>
<path opacity="0.1" d="M113.432 166.506C114.309 166.506 115.02 165.795 115.02 164.918C115.02 164.041 114.309 163.33 113.432 163.33C112.556 163.33 111.845 164.041 111.845 164.918C111.845 165.795 112.556 166.506 113.432 166.506Z" fill="black"/>
<path opacity="0.1" d="M140.691 165.58C141.568 165.58 142.278 164.869 142.278 163.992C142.278 163.115 141.568 162.404 140.691 162.404C139.814 162.404 139.103 163.115 139.103 163.992C139.103 164.869 139.814 165.58 140.691 165.58Z" fill="black"/>
<path d="M113.432 165.977C114.309 165.977 115.02 165.266 115.02 164.389C115.02 163.512 114.309 162.801 113.432 162.801C112.556 162.801 111.845 163.512 111.845 164.389C111.845 165.266 112.556 165.977 113.432 165.977Z" fill="white"/>
<path opacity="0.1" d="M115.682 188.471C116.559 188.471 117.27 187.76 117.27 186.883C117.27 186.006 116.559 185.295 115.682 185.295C114.805 185.295 114.094 186.006 114.094 186.883C114.094 187.76 114.805 188.471 115.682 188.471Z" fill="black"/>
<path opacity="0.1" d="M141.484 186.883C142.361 186.883 143.072 186.172 143.072 185.295C143.072 184.418 142.361 183.708 141.484 183.708C140.608 183.708 139.897 184.418 139.897 185.295C139.897 186.172 140.608 186.883 141.484 186.883Z" fill="black"/>
<path d="M115.682 187.942C116.559 187.942 117.27 187.231 117.27 186.354C117.27 185.477 116.559 184.766 115.682 184.766C114.805 184.766 114.094 185.477 114.094 186.354C114.094 187.231 114.805 187.942 115.682 187.942Z" fill="white"/>
<path opacity="0.1" d="M140.823 263.506C141.7 263.506 142.411 262.795 142.411 261.918C142.411 261.041 141.7 260.33 140.823 260.33C139.946 260.33 139.235 261.041 139.235 261.918C139.235 262.795 139.946 263.506 140.823 263.506Z" fill="black"/>
<path opacity="0.1" d="M119.925 263.506C120.802 263.506 121.513 262.795 121.513 261.918C121.513 261.041 120.802 260.33 119.925 260.33C119.048 260.33 118.338 261.041 118.338 261.918C118.338 262.795 119.048 263.506 119.925 263.506Z" fill="black"/>
<path d="M140.823 262.977C141.7 262.977 142.411 262.266 142.411 261.389C142.411 260.512 141.7 259.801 140.823 259.801C139.946 259.801 139.235 260.512 139.235 261.389C139.235 262.266 139.946 262.977 140.823 262.977Z" fill="white"/>
<path opacity="0.1" d="M121.513 290.093C122.39 290.093 123.101 289.383 123.101 288.506C123.101 287.629 122.39 286.918 121.513 286.918C120.636 286.918 119.925 287.629 119.925 288.506C119.925 289.383 120.636 290.093 121.513 290.093Z" fill="black"/>
<path opacity="0.1" d="M141.484 288.506C142.361 288.506 143.072 287.795 143.072 286.918C143.072 286.041 142.361 285.33 141.484 285.33C140.608 285.33 139.897 286.041 139.897 286.918C139.897 287.795 140.608 288.506 141.484 288.506Z" fill="black"/>
<path d="M121.513 289.564C122.39 289.564 123.101 288.853 123.101 287.976C123.101 287.099 122.39 286.388 121.513 286.388C120.636 286.388 119.925 287.099 119.925 287.976C119.925 288.853 120.636 289.564 121.513 289.564Z" fill="white"/>
<path d="M119.925 262.977C120.802 262.977 121.513 262.266 121.513 261.389C121.513 260.512 120.802 259.801 119.925 259.801C119.048 259.801 118.338 260.512 118.338 261.389C118.338 262.266 119.048 262.977 119.925 262.977Z" fill="white"/>
<path d="M141.484 287.976C142.361 287.976 143.072 287.265 143.072 286.388C143.072 285.512 142.361 284.801 141.484 284.801C140.608 284.801 139.897 285.512 139.897 286.388C139.897 287.265 140.608 287.976 141.484 287.976Z" fill="white"/>
<path d="M140.691 165.05C141.568 165.05 142.278 164.339 142.278 163.462C142.278 162.586 141.568 161.875 140.691 161.875C139.814 161.875 139.103 162.586 139.103 163.462C139.103 164.339 139.814 165.05 140.691 165.05Z" fill="white"/>
<path d="M141.484 186.354C142.361 186.354 143.072 185.643 143.072 184.766C143.072 183.889 142.361 183.178 141.484 183.178C140.608 183.178 139.897 183.889 139.897 184.766C139.897 185.643 140.608 186.354 141.484 186.354Z" fill="white"/>
<path opacity="0.1" d="M143.866 240.473C143.866 240.473 144.131 276.729 144.925 283.213C144.925 283.213 145.213 242.182 143.866 240.473Z" fill="black"/>
<path opacity="0.1" d="M150.615 257.278C150.069 257.278 161.465 299.753 161.994 302.796C162.523 305.84 153.79 257.278 150.615 257.278Z" fill="black"/>
<path opacity="0.1" d="M159.612 250.397C159.612 250.794 165.964 273.421 169.14 274.612C172.315 275.803 159.612 250.397 159.612 250.397Z" fill="black"/>
<path opacity="0.1" d="M184.621 206.334C184.621 206.334 171.124 206.936 170.727 208.885C170.33 210.833 184.621 206.334 184.621 206.334Z" fill="black"/>
<path opacity="0.1" d="M73.7362 178.547H71.2221L67.3848 192.573C67.3848 192.573 66.0616 197.469 64.7384 198.66C63.4152 199.851 65.9293 210.701 65.9293 210.701C65.9293 210.701 64.4738 218.376 63.2829 220.36C62.092 222.345 65.1354 227.241 65.1354 227.241L71.2221 241.532L87.3653 245.766C87.3653 245.766 115.814 251.985 117.137 252.911C118.461 253.838 119.652 252.514 120.578 243.914C121.504 235.313 124.018 218.64 126.003 217.846C126.003 217.846 110.124 219.567 108.801 219.302C107.478 219.037 101.127 219.434 101.127 219.434C101.127 219.434 92.7904 218.905 91.4672 219.699C90.1441 220.493 93.1874 215.856 93.1874 215.856C93.7445 213.732 93.7445 211.501 93.1874 209.378C92.2612 205.805 91.7319 165.315 73.7362 178.547Z" fill="black"/>
<path opacity="0.1" d="M125.474 219.434C123.489 220.228 120.975 236.9 120.049 245.501C119.122 254.102 117.931 255.425 116.608 254.499C115.534 253.748 96.5695 249.503 89.4824 247.936C90.5992 241.346 91.2026 233.989 91.2026 233.989L71.0898 180.135H73.2069C91.2026 166.903 91.7319 207.393 92.6581 210.966C93.2152 213.089 93.2152 215.32 92.6581 217.444C92.6581 217.444 89.6147 222.081 90.9379 221.287C92.2612 220.493 100.597 221.022 100.597 221.022C100.597 221.022 106.949 220.625 108.272 220.89C109.595 221.154 125.474 219.434 125.474 219.434Z" fill="black"/>
<path d="M73.207 179.076H70.6929L66.8556 193.102C66.8556 193.102 65.5324 197.998 64.2091 199.189C62.8859 200.38 65.4 211.23 65.4 211.23C65.4 211.23 63.9445 218.905 62.7536 220.89C61.5627 222.874 64.6061 227.77 64.6061 227.77L70.6929 242.061L86.836 246.295C86.836 246.295 115.285 252.514 116.608 253.441C117.931 254.367 119.122 253.044 120.049 244.443C120.975 235.842 123.489 219.17 125.474 218.376C125.474 218.376 109.595 220.096 108.272 219.831C106.949 219.567 100.597 219.963 100.597 219.963C100.597 219.963 92.2611 219.434 90.9379 220.228C89.6148 221.022 92.6581 216.385 92.6581 216.385C93.2153 214.262 93.2153 212.03 92.6581 209.907C91.7319 206.334 91.2026 165.844 73.207 179.076Z" fill="#2F302B"/>
<path opacity="0.1" d="M81.8079 226.976C81.8079 226.976 74.5302 240.738 73.207 239.15C71.8838 237.562 81.8079 226.976 81.8079 226.976Z" fill="black"/>
<path opacity="0.1" d="M74.2655 219.14C74.2655 219.14 67.5171 224.727 70.6928 226.182C73.8685 227.638 74.2655 219.14 74.2655 219.14Z" fill="black"/>
<path opacity="0.1" d="M80.6169 212.289C81.1462 212.421 90.4087 214.261 90.541 215.061C90.6733 215.861 80.6169 212.289 80.6169 212.289Z" fill="black"/>
<path opacity="0.1" d="M144.851 115.356C144.563 115.457 144.318 115.652 144.153 115.909C143.989 116.166 143.916 116.471 143.946 116.774C143.406 117.251 142.649 116.69 142.21 116.081C141.765 115.478 141.262 114.731 140.59 114.816C140.271 114.918 139.961 115.047 139.664 115.202C138.605 115.541 137.711 114.297 137.118 113.207C136.086 111.296 135.054 109.387 134.022 107.48C131.952 108.682 129.507 107.422 127.453 106.178C125.4 104.934 122.954 103.669 120.88 104.871C117.836 106.628 117.725 112.487 114.57 113.932C113.554 114.398 112.374 114.297 111.432 114.938C110.5 115.573 109.997 116.796 109.579 117.965C109.425 118.631 109.061 119.23 108.542 119.675C108.212 119.847 107.845 119.936 107.473 119.934C106.537 120.093 105.576 119.958 104.72 119.548C104.272 119.266 103.933 118.84 103.76 118.339C103.587 117.839 103.59 117.294 103.768 116.796C103.793 116.743 103.821 116.691 103.852 116.642C104.191 116.232 104.496 115.795 104.763 115.335C105.08 114.493 104.625 113.514 104.726 112.604C104.89 111.048 106.536 110.227 106.816 108.697C106.933 108.099 106.811 107.459 106.922 106.856C106.938 106.777 106.959 106.699 106.986 106.623L106.017 107.29C107.102 106.025 107.647 104.267 108.441 102.732C109.323 101.052 110.537 99.5676 112.009 98.3695C113.481 97.1714 115.181 96.2843 117.005 95.7618C120.456 94.7562 124.103 95.0314 127.586 95.8835C130.897 96.7086 134.07 98.0158 137.001 99.7632C138.049 100.325 138.979 101.081 139.743 101.991C140.383 102.935 140.927 103.941 141.368 104.992C142.395 107.12 145.2 109.089 142.967 109.386C141.109 109.634 142.802 110.936 143.776 111.815C143.996 111.987 144.186 112.195 144.337 112.429C144.499 112.764 144.573 113.134 144.553 113.505C144.532 113.876 144.418 114.236 144.221 114.551C143.845 115.028 145.369 115.123 144.851 115.356Z" fill="black"/>
<path d="M144.851 114.827C144.563 114.928 144.318 115.123 144.153 115.38C143.989 115.637 143.916 115.942 143.946 116.245C143.406 116.721 142.649 116.16 142.21 115.552C141.765 114.948 141.262 114.202 140.59 114.287C140.271 114.389 139.961 114.518 139.664 114.673C138.605 115.012 137.711 113.768 137.118 112.678C136.086 110.767 135.054 108.858 134.022 106.951C131.952 108.152 129.507 106.893 127.453 105.649C125.4 104.405 122.954 103.14 120.88 104.342C117.836 106.099 117.725 111.958 114.57 113.403C113.554 113.869 112.374 113.768 111.432 114.408C110.5 115.044 109.997 116.266 109.579 117.436C109.425 118.102 109.061 118.701 108.542 119.146C108.212 119.318 107.845 119.407 107.473 119.405C106.537 119.564 105.576 119.429 104.72 119.019C104.272 118.737 103.933 118.31 103.76 117.81C103.587 117.31 103.589 116.765 103.768 116.266C103.793 116.213 103.821 116.162 103.852 116.113C104.191 115.703 104.496 115.266 104.763 114.805C105.08 113.964 104.625 112.985 104.726 112.074C104.89 110.518 106.536 109.698 106.816 108.168C106.933 107.57 106.811 106.93 106.922 106.326C106.938 106.247 106.959 106.169 106.986 106.093L106.017 106.76C107.102 105.495 107.647 103.738 108.441 102.203C109.323 100.523 110.537 99.0384 112.009 97.8402C113.481 96.6421 115.181 95.755 117.005 95.2325C120.456 94.2269 124.103 94.5021 127.586 95.3543C130.897 96.1793 134.07 97.4865 137.001 99.2339C138.049 99.7955 138.979 100.552 139.743 101.462C140.383 102.406 140.927 103.411 141.368 104.463C142.395 106.591 145.2 108.56 142.967 108.856C141.109 109.105 142.802 110.407 143.776 111.286C143.996 111.458 144.186 111.665 144.337 111.9C144.499 112.234 144.573 112.605 144.553 112.976C144.532 113.347 144.418 113.707 144.221 114.022C143.845 114.498 145.369 114.594 144.851 114.827Z" fill="#865A61"/>
<path opacity="0.1" d="M143.776 111.286L143.565 113.514C143.565 113.514 121.356 85.3667 104.08 117.15C104.08 117.15 103.995 116.764 103.852 116.113C104.191 115.703 104.496 115.266 104.763 114.805C105.08 113.964 104.625 112.985 104.726 112.074C104.89 110.518 106.536 109.698 106.816 108.168C106.933 107.57 106.811 106.93 106.922 106.326C106.938 106.247 106.959 106.169 106.986 106.093L106.017 106.76C107.102 105.495 107.647 103.738 108.441 102.203C109.323 100.523 110.537 99.0384 112.009 97.8402C113.481 96.6421 115.181 95.755 117.005 95.2325C120.456 94.2269 124.103 94.5021 127.586 95.3543C130.897 96.1793 134.07 97.4865 137.002 99.2339C138.049 99.7955 138.979 100.552 139.743 101.462C140.383 102.406 140.927 103.411 141.368 104.463C142.395 106.591 145.2 108.56 142.967 108.856C141.109 109.105 142.802 110.407 143.776 111.286Z" fill="black"/>
<g opacity="0.1">
<path opacity="0.1" d="M144.324 114.538C144.214 114.661 144.135 114.808 144.091 114.967C144.047 115.126 144.041 115.293 144.072 115.454C143.532 115.931 142.775 115.37 142.336 114.761C141.892 114.158 141.389 113.411 140.717 113.496C140.397 113.598 140.087 113.727 139.79 113.882C138.732 114.221 137.837 112.977 137.244 111.887C136.212 109.976 135.18 108.067 134.148 106.16C132.079 107.362 129.633 106.102 127.58 104.858C125.526 103.614 123.081 102.349 121.006 103.551C117.963 105.308 117.851 111.167 114.697 112.612C113.681 113.078 112.5 112.977 111.558 113.618C110.627 114.253 110.124 115.476 109.706 116.645C109.551 117.311 109.188 117.91 108.668 118.355C108.339 118.527 107.971 118.616 107.599 118.614C106.664 118.773 105.702 118.638 104.847 118.228C104.334 117.888 103.967 117.369 103.816 116.773C103.71 117.247 103.753 117.742 103.937 118.191C104.122 118.641 104.439 119.023 104.847 119.286C105.702 119.697 106.664 119.832 107.599 119.673C107.971 119.675 108.339 119.586 108.668 119.413C109.188 118.969 109.551 118.37 109.706 117.704C110.124 116.534 110.627 115.311 111.558 114.676C112.5 114.036 113.681 114.136 114.697 113.671C117.851 112.226 117.963 106.367 121.006 104.609C123.081 103.408 125.526 104.673 127.58 105.917C129.633 107.161 132.079 108.42 134.148 107.219C135.18 109.124 136.212 111.033 137.244 112.946C137.837 114.036 138.732 115.28 139.79 114.941C140.087 114.786 140.397 114.656 140.717 114.555C141.389 114.47 141.892 115.216 142.336 115.82C142.775 116.428 143.532 116.989 144.072 116.513C144.043 116.209 144.116 115.905 144.28 115.648C144.444 115.39 144.69 115.196 144.977 115.095C145.39 114.909 144.512 114.81 144.324 114.538Z" fill="black"/>
<path opacity="0.1" d="M142.593 109.25C142.753 109.186 142.922 109.144 143.093 109.124C144.078 108.994 144.082 108.537 143.692 107.886C143.507 107.986 143.303 108.047 143.093 108.066C142.03 108.208 142.131 108.695 142.593 109.25Z" fill="black"/>
<path opacity="0.1" d="M144.621 113.684C144.695 113.343 144.693 112.989 144.615 112.649C144.568 112.86 144.477 113.058 144.347 113.231C144.182 113.442 144.386 113.577 144.621 113.684Z" fill="black"/>
<path opacity="0.1" d="M104.883 112.159C104.872 112.22 104.859 112.279 104.852 112.342C104.831 112.819 104.865 113.296 104.956 113.765C105.018 113.229 104.993 112.687 104.883 112.159V112.159Z" fill="black"/>
<path opacity="0.1" d="M107.032 105.702C106.783 106.173 106.485 106.618 106.144 107.028L106.998 106.44C106.994 106.193 107.005 105.947 107.032 105.702V105.702Z" fill="black"/>
</g>
<path d="M104.079 116.621C104.079 116.621 100.885 102.344 101.901 100.054C101.901 100.054 99.1433 94.3976 99.1433 93.0507C99.0094 90.8032 98.3104 88.6259 97.1109 86.7205C95.6592 84.4308 94.0624 73.7906 102.772 71.2315C111.482 68.6725 118.16 66.3828 119.176 64.6319C120.192 62.881 135.145 63.9584 139.209 70.6928C143.274 77.4271 145.887 76.0802 145.887 76.0802C145.887 76.0802 152.129 79.9861 152.129 83.488C152.129 86.9898 150.242 88.7408 152.129 89.5489C154.016 90.357 152.565 104.903 144.29 105.307L143.564 112.984C143.564 112.984 121.354 84.8349 104.079 116.621Z" fill="#2F302B"/>
<path opacity="0.1" d="M105.03 74.0136C105.03 74.0136 103.111 85.2608 106.618 89.032L105.03 74.0136Z" fill="black"/>
<path opacity="0.1" d="M114.028 71.4333C114.028 71.4333 109.132 83.4745 110.323 85.7901L114.028 71.4333Z" fill="black"/>
<path opacity="0.1" d="M118.262 67.596C118.262 67.596 114.954 83.276 116.542 84.5331L118.262 67.596Z" fill="black"/>
<path opacity="0.1" d="M123.952 71.8303C123.952 71.8303 119.85 81.8867 121.504 83.276L123.952 71.8303Z" fill="black"/>
<path opacity="0.1" d="M131.693 73.0212C131.693 73.0212 126.863 81.2251 127.855 82.6806L131.693 73.0212Z" fill="black"/>
<path opacity="0.1" d="M141.617 81.0266C141.617 81.0266 136.456 82.416 137.515 84.07L141.617 81.0266Z" fill="black"/>
<path opacity="0.1" d="M146.513 89.5613C146.513 89.5613 141.881 91.8107 142.741 93.0016L146.513 89.5613Z" fill="black"/>
<path opacity="0.1" d="M101.901 100.054C101.901 100.054 131.482 88.0391 144.29 105.307C144.29 105.307 128.743 92.0888 101.901 100.054Z" fill="black"/>
<path d="M91.2119 198.781L95.3337 194.611L106.987 206.13L102.865 210.301L92.148 199.706L91.2119 198.781Z" fill="#53526B"/>
<path d="M64.1718 172.051C64.1718 172.051 82.2118 173.586 99.002 192.485L92.0039 199.564L64.1718 172.051Z" fill="#DFE6F5"/>
<path d="M118.282 205.842C118.282 205.842 100.943 199.521 99.2389 198.01C97.535 196.498 87.5124 205.292 99.74 217.247C99.74 217.247 114.692 221.507 118.692 217.247C122.692 212.987 118.282 205.842 118.282 205.842Z" fill="#FDC2CC"/>
</g>
<defs>
<linearGradient id="paint0_linear" x1="127.995" y1="495" x2="127.995" y2="62" gradientUnits="userSpaceOnUse">
<stop stop-color="#808080" stop-opacity="0.25"/>
<stop offset="0.53514" stop-color="#808080" stop-opacity="0.12"/>
<stop offset="1" stop-color="#808080" stop-opacity="0.1"/>
</linearGradient>
</defs>
</svg>
