<svg width="256" height="320" viewBox="0 0 256 320" fill="none" xmlns="http://www.w3.org/2000/svg">
<mask id="mask0" mask-type="alpha" maskUnits="userSpaceOnUse" x="0" y="0" width="256" height="320">
<rect width="256" height="320" rx="32" fill="white"/>
</mask>
<g mask="url(#mask0)">
<path d="M193.987 192.267C193.969 192.192 193.929 192.124 193.873 192.07C192.743 190.955 178.332 170.576 178.332 170.576C178.332 170.576 177.574 168.3 176.345 165.342C176.739 164.832 177.035 164.254 177.217 163.636C177.284 163.374 177.332 163.108 177.362 162.839C177.362 162.756 177.422 162.688 177.445 162.604C177.708 161.576 177.682 160.494 177.369 159.479C177.285 159.74 177.181 159.993 177.058 160.238C176.773 159.354 176.391 158.505 175.921 157.705C174.009 154.413 171.279 151.637 169.269 148.429C166.225 143.444 165.016 137.554 165.848 131.773C165.848 132.069 165.848 132.372 165.848 132.668C165.924 131.522 166.076 130.381 166.303 129.255C166.62 127.973 167.044 126.72 167.57 125.508C169.375 121.375 172.295 117.772 174.07 113.623C174.665 112.224 175.118 110.768 175.42 109.277C176.045 106.788 176.273 104.216 176.095 101.655C176.095 102.262 175.996 102.869 175.905 103.468C175.714 97.3115 173.227 91.4493 168.935 87.032C162.739 80.8051 153.842 78.3857 145.332 77.1115C141.756 76.6942 138.341 75.3907 135.396 73.3192C132.127 71.2031 127.903 70.695 124.08 71.1576C119.687 71.6326 115.604 73.651 112.559 76.8536C108.517 81.2981 106.765 87.5933 102.047 91.34C99.1879 93.6154 95.5625 94.6772 92.2328 96.2245C88.9032 97.7717 85.7557 100.017 84.6862 103.339C84.6862 103.339 84.6862 103.293 84.6862 103.271V103.46L84.6407 103.581C83.5334 107.51 85.6722 111.507 86.7872 115.429C87.9476 119.486 88.0234 123.771 88.0841 127.966C88.1675 133.093 88.2434 138.228 88.16 143.362C88.122 145.38 88.0538 147.42 87.9021 149.43C86.1069 149.973 84.3632 150.673 82.6915 151.523C80.9926 152.631 74.6367 159.495 74.6367 159.495L62.2057 206.989L62.3726 207.179L62.2057 207.823L62.8352 207.679C64.5948 209.575 69.8509 214.975 75.5241 218.343L76.055 227.657C76.055 227.657 76.6921 237.001 85.2854 240.861C85.4826 244.1 86.097 257.252 83.2528 262.462C81.2833 266.269 80.3569 270.529 80.5678 274.81C80.5678 274.81 81.5614 282.713 80.4313 286.869C79.7711 289.647 79.7219 292.535 80.2872 295.334V295.334C80.2872 295.334 80.2872 296.251 80.2872 297.829C80.2872 306.24 80.3858 333.195 80.2872 336.244C80.1431 339.847 80.2872 393.128 80.2872 393.128C80.2872 393.128 79.5819 419.758 77.3217 426.971C75.0615 434.183 75.6303 458.067 75.6303 458.067C75.6303 458.067 74.212 486.517 79.2254 492.129C79.2254 492.38 79.1799 492.637 79.1723 492.888C79.1723 493.001 79.1723 493.13 79.1723 493.244C79.1116 495.406 79.5288 497.704 81.387 498.409C85.1792 499.865 90.1926 504.234 91.1407 505.486C92.0887 506.737 97.6027 509.854 104.793 509.02C109.297 508.514 113.83 508.306 118.362 508.398V508.398C118.362 508.398 121.198 507.882 120.28 504.355C119.689 502.156 117.474 498.773 115.897 496.551C116.185 496.627 116.465 496.688 116.731 496.741L117.004 496.794H117.216C117.332 496.801 117.449 496.801 117.565 496.794H117.717C117.858 496.805 118 496.805 118.142 496.794V496.794C120.045 496.612 127.144 499.919 128.411 502.103C129.678 504.287 134.145 505.948 137.512 506.365C139.515 506.608 144.566 506.199 148.806 505.652C150.941 505.432 153.056 505.047 155.131 504.5C156.132 504.12 156.345 502.907 156.057 501.542C155.716 499.808 154.79 498.244 153.432 497.112C152.204 496.24 150.581 493.942 149.382 492.061L149.064 491.553C151.18 489.535 155.002 482.937 156.163 481.572C157.574 479.911 153.887 419.166 153.887 419.166V388.714L159.538 359.893L163.489 344.641L166.88 321.614C166.88 321.614 172.811 294.719 170.983 292.08C170.983 292.027 169.466 264.336 167.873 257.684C167.183 254.718 167.358 248.044 167.767 241.552C168.195 241.127 168.494 240.589 168.628 240.001C168.762 239.412 168.727 238.798 168.526 238.23C168.412 237.841 168.265 237.463 168.086 237.1C168.086 236.986 168.086 236.864 168.086 236.751C171.362 235.243 174.786 234.079 178.302 233.277C183.953 232.17 182.542 229.257 182.542 229.257C182.542 229.257 183.816 226.762 184.658 225.237C185.5 223.713 184.802 210.258 184.658 209.151C184.605 208.703 184.256 206.23 183.854 203.424C185.667 202.135 188.025 200.534 190.597 199.018C195.489 196.12 194.389 193.064 193.987 192.267ZM120.265 384.558C120.265 384.558 116.025 395.373 117.724 398.142C119.423 400.91 117.444 411.187 117.444 411.187L116.026 426.44C116.026 426.44 112.074 454.73 113.485 461.382C114.592 466.6 115.002 482.186 115.131 488.686C115.033 488.724 114.94 488.769 114.85 488.822L114.66 488.921C115.313 486.365 115.04 481.192 111.801 470.786L111.528 427.805C111.528 427.805 111.027 378.157 114.949 372.605C118.87 367.053 120.258 357.625 120.258 357.625C120.258 357.625 119.408 371.224 118.855 374.827C118.301 378.43 120.265 384.558 120.265 384.558ZM112.37 491.394C112.332 491.485 112.286 491.576 112.256 491.659L112.044 491.386C112.152 491.396 112.261 491.399 112.37 491.394V491.394Z" fill="url(#paint0_linear)"/>
<path d="M167.229 324.352L163.876 347.515L159.978 362.866L154.396 391.885V422.602C154.396 422.602 158.021 483.718 156.626 485.387C155.23 487.055 149.928 496.559 148.533 496.005C147.137 495.451 135.7 493.494 132.067 495.163C128.434 496.832 116.139 495.444 116.139 495.444C116.139 495.444 115.859 471.727 114.463 465.03C113.068 458.333 116.974 429.868 116.974 429.868L118.369 414.524C118.369 414.524 120.326 404.194 118.65 401.403C116.974 398.612 121.16 387.751 121.16 387.751C121.16 387.751 119.211 381.6 119.772 377.975C120.334 374.349 121.16 360.674 121.16 360.674C121.16 360.674 119.772 370.17 115.897 375.745C112.021 381.319 112.514 431.279 112.514 431.279L112.787 474.51C119.772 497.401 112.787 495.163 112.787 495.163C112.787 495.163 86.2866 501.026 80.9319 496.278C75.5772 491.53 77.1093 461.647 77.1093 461.647C77.1093 461.647 76.5556 437.65 78.7855 430.399C81.0153 423.148 81.7207 396.352 81.7207 396.352C81.7207 396.352 81.5766 342.767 81.7207 339.149C81.8269 336.115 81.7207 308.955 81.7207 300.468C81.7207 298.891 81.7207 297.958 81.7207 297.958L84.9213 290.009L122.844 285.261H140.986C140.986 285.261 168.29 291.678 171.112 294.446C171.172 294.492 171.224 294.549 171.264 294.613C173.092 297.29 167.229 324.352 167.229 324.352Z" fill="#67B9E8"/>
<path d="M113.614 78.1506C109.617 82.6179 107.887 88.951 103.23 92.7281C100.401 95.0034 96.8215 96.088 93.5298 97.6352C90.2381 99.1825 86.9768 101.541 85.9984 105.045C84.9062 108.989 87.0147 113.017 88.122 116.961C89.2673 121.041 89.3355 125.304 89.4038 129.574C89.4796 134.739 89.5631 139.904 89.4721 145.069C89.3355 153.116 88.6681 161.535 84.398 168.353C99.8174 173.261 116.215 173.928 132.385 174.558C135.493 174.779 138.614 174.7 141.707 174.322C144.386 173.788 147.037 173.118 149.648 172.313C154.81 170.947 160.129 170.266 165.469 170.287C167.797 170.287 170.171 170.432 172.416 169.825C174.661 169.218 176.823 167.663 177.43 165.418C177.968 163.401 177.18 161.254 176.148 159.442C174.267 156.135 171.597 153.374 169.58 150.113C167.52 146.668 166.298 142.787 166.013 138.784C165.727 134.78 166.385 130.766 167.934 127.063C169.724 122.899 172.606 119.274 174.366 115.102C176.168 110.624 176.647 105.722 175.746 100.979C174.846 96.2355 172.603 91.8505 169.284 88.3442C163.163 82.0794 154.38 79.6523 145.977 78.363C142.438 77.945 139.063 76.6406 136.162 74.5707C132.939 72.447 128.76 71.9313 124.983 72.4015C120.625 72.8898 116.59 74.9306 113.614 78.1506Z" fill="#3F3D56"/>
<g opacity="0.1">
<path opacity="0.1" d="M168.169 122.687C166.623 126.342 165.96 130.31 166.235 134.268C166.405 131.438 167.059 128.657 168.169 126.047C169.952 121.883 172.834 118.258 174.593 114.086C176.032 110.603 176.637 106.832 176.36 103.073C176.204 105.708 175.607 108.297 174.593 110.734C172.834 114.905 169.952 118.523 168.169 122.687Z" fill="black"/>
<path opacity="0.1" d="M89.6314 128.542C89.6769 131.515 89.7224 134.496 89.73 137.469C89.73 133.374 89.692 129.285 89.6314 125.197C89.5707 120.958 89.4948 116.665 88.3496 112.577C87.5911 109.983 86.4686 107.351 86.0742 104.734C85.3992 108.451 87.3181 112.22 88.3496 115.929C89.4948 119.979 89.5707 124.302 89.6314 128.542Z" fill="black"/>
<path opacity="0.1" d="M172.674 165.486C170.399 166.101 168.063 165.964 165.734 165.949C160.399 165.915 155.082 166.583 149.921 167.936C147.309 168.738 144.659 169.406 141.98 169.939C138.885 170.323 135.761 170.404 132.651 170.181C117.027 169.567 101.183 168.907 86.2183 164.44C85.774 165.432 85.2674 166.394 84.7014 167.322C100.121 172.221 116.518 172.897 132.681 173.526C135.791 173.749 138.916 173.668 142.01 173.283C144.68 172.756 147.32 172.09 149.921 171.289C155.071 169.931 160.378 169.255 165.704 169.279C168.033 169.279 170.399 169.423 172.644 168.808C174.889 168.194 177.051 166.654 177.657 164.409C177.913 163.37 177.887 162.281 177.582 161.254C176.906 163.378 174.821 164.857 172.674 165.486Z" fill="black"/>
</g>
<path d="M150.209 156.499C149.648 157.758 147.281 168.634 146.72 169.749C146.159 170.864 143.095 188.71 142.814 189.711C142.533 190.713 122.616 185.525 122.616 185.525L110.625 175.475L98.3005 163.211C98.3005 163.211 97.9364 152.145 107.015 148.596C107.632 148.353 108.266 148.156 108.911 148.004C119.924 145.357 118.817 111.871 118.817 111.871L141.418 121.633C141.418 121.633 137.232 141.17 137.376 144.94C137.414 146.207 138.407 146.995 139.704 147.473C141.71 148.044 143.797 148.269 145.878 148.141C145.878 148.141 150.77 155.247 150.209 156.499Z" fill="#FBBEBE"/>
<path d="M190.672 193.193L193.881 194.035C193.881 194.035 196.255 197.645 190.672 201.005C187.128 203.158 183.725 205.537 180.486 208.127L163.99 213.148L160.812 203.174L176.163 191.524L190.672 193.193Z" fill="#67B9E8"/>
<path opacity="0.1" d="M190.672 193.193L193.881 194.035C193.881 194.035 196.255 197.645 190.672 201.005C187.128 203.158 183.725 205.537 180.486 208.127L163.99 213.148L160.812 203.174L176.163 191.524L190.672 193.193Z" fill="black"/>
<path d="M70.2832 202.825L63.8667 209.105C63.8667 209.105 75.4407 222.499 84.3449 223.334C93.2492 224.168 98.9907 213.148 98.9907 213.148L91.2848 201.012L70.2832 202.825Z" fill="#67B9E8"/>
<path opacity="0.1" d="M70.2832 202.825L63.8667 209.105C63.8667 209.105 75.4407 222.499 84.3449 223.334C93.2492 224.168 98.9907 213.148 98.9907 213.148L91.2848 201.012L70.2832 202.825Z" fill="black"/>
<path opacity="0.1" d="M131.232 133.753C143.56 133.753 153.554 123.759 153.554 111.431C153.554 99.1038 143.56 89.1102 131.232 89.1102C118.905 89.1102 108.911 99.1038 108.911 111.431C108.911 123.759 118.905 133.753 131.232 133.753Z" fill="black"/>
<path d="M131.232 132.077C143.56 132.077 153.554 122.083 153.554 109.755C153.554 97.4276 143.56 87.434 131.232 87.434C118.905 87.434 108.911 97.4276 108.911 109.755C108.911 122.083 118.905 132.077 131.232 132.077Z" fill="#FBBEBE"/>
<path opacity="0.1" d="M171.279 297.146C166.196 297.728 161.19 298.849 156.345 300.491C148.002 303.267 82.6232 300.536 81.7131 300.491C81.7131 298.913 81.7131 297.981 81.7131 297.981L84.9138 290.032L122.836 285.284H140.979C140.979 285.284 168.283 291.701 171.104 294.469C171.218 296.137 171.279 297.146 171.279 297.146Z" fill="black"/>
<path opacity="0.1" d="M150.209 156.499C149.648 157.758 147.281 168.634 146.72 169.749C146.159 170.864 143.095 188.71 142.814 189.711C142.533 190.713 122.616 185.525 122.616 185.525L110.625 175.475L98.3005 163.211C98.3005 163.211 97.9364 152.145 107.015 148.596L129.556 174.512L139.704 147.473C141.71 148.044 143.797 148.269 145.878 148.141C145.878 148.141 150.77 155.247 150.209 156.499Z" fill="black"/>
<path d="M129.556 175.346L106.484 148.8C105.134 147.938 103.59 147.425 101.992 147.308C100.394 147.19 98.792 147.471 97.3296 148.125C92.1646 150.363 85.7481 152.176 84.0719 153.291C82.3957 154.405 76.1157 161.307 76.1157 161.307L94.8192 210.235L86.5824 242.462C86.5824 242.462 87.8414 258.928 84.6332 264.927C82.6797 268.763 81.7645 273.044 81.9786 277.343C81.9786 277.343 82.957 285.299 81.842 289.478C81.1906 292.272 81.1414 295.173 81.6979 297.988C81.6979 297.988 147.979 300.779 156.345 297.988C161.189 296.342 166.195 295.22 171.279 294.643C171.279 294.643 169.762 266.732 168.245 260.035C166.728 253.338 169.504 227.808 169.504 227.808L167.691 200.459L178.568 172.396C178.568 172.396 172.674 154.405 166.531 152.593C166.531 152.593 155.374 149.938 153 148.687C150.626 147.435 143.648 146.313 143.648 146.313L139.985 147.541L129.556 175.346Z" fill="#67B9E8"/>
<path opacity="0.1" d="M161.747 199.535L113.197 196.234C111.968 196.15 110.904 197.079 110.821 198.307L105.608 274.962C105.525 276.19 106.453 277.254 107.682 277.338L156.232 280.639C157.461 280.722 158.524 279.794 158.608 278.565L163.82 201.911C163.904 200.682 162.976 199.619 161.747 199.535Z" fill="black"/>
<path d="M163.419 197.87L114.868 194.569C113.64 194.486 112.576 195.414 112.492 196.643L107.28 273.297C107.196 274.525 108.125 275.589 109.353 275.673L157.904 278.974C159.132 279.058 160.196 278.129 160.28 276.901L165.492 200.246C165.576 199.018 164.647 197.954 163.419 197.87Z" fill="#3F3D56"/>
<path d="M161.816 203.879L115.642 200.739L110.897 270.523L157.071 273.662L161.816 203.879Z" fill="white"/>
<path opacity="0.1" d="M157.676 221.691L119.958 219.051L119.222 229.563L156.94 232.203L157.676 221.691Z" fill="black"/>
<path opacity="0.1" d="M156.311 263.466L150.326 263.059L149.953 268.537L155.939 268.944L156.311 263.466Z" fill="black"/>
<path opacity="0.1" d="M150.407 250.243L119.768 248.16L119.396 253.639L150.035 255.722L150.407 250.243Z" fill="black"/>
<path d="M156.101 201.27L124.199 199.101L123.626 207.523L155.529 209.692L156.101 201.27Z" fill="#3F3D56"/>
<path opacity="0.1" d="M156.101 201.27L124.199 199.101L123.626 207.523L155.529 209.692L156.101 201.27Z" fill="black"/>
<path opacity="0.1" d="M132.347 295.607C132.347 295.607 132.067 336.912 121.183 360.629C121.183 360.629 134.304 329.373 134.304 328.121C134.304 326.87 141.555 313.749 139.613 309.843C137.672 305.937 132.347 295.607 132.347 295.607Z" fill="black"/>
<path opacity="0.1" d="M132.939 104.173C132.522 100.517 133.417 96.832 135.465 93.7747C135.221 96.8391 136.088 99.8889 137.906 102.367C139.725 104.846 142.374 106.588 145.37 107.275C145.114 107.053 144.932 106.759 144.847 106.432C144.761 106.104 144.777 105.758 144.892 105.44C146.447 107.199 147.638 109.285 149.397 110.832C151.157 112.38 153.796 113.305 155.867 112.205C158.681 110.688 158.711 106.691 157.983 103.581C156.421 96.9591 153.215 90.837 148.662 85.7806C147.526 84.2522 146.051 83.0076 144.354 82.1444C142.656 81.2811 140.782 80.8228 138.878 80.8052C134.57 80.4714 130.095 80.8507 126.234 82.7847C124.062 83.9702 122.027 85.3921 120.167 87.0245L109.548 95.686C108.527 96.4221 107.652 97.343 106.97 98.4012C106.514 99.2859 106.24 100.253 106.166 101.245C105.894 104.082 106.419 106.938 107.681 109.493C108.943 112.048 110.893 114.201 113.31 115.709C113.259 113.467 113.876 111.261 115.082 109.37C116.288 107.479 118.029 105.99 120.083 105.091C120.405 105.36 120.666 105.695 120.847 106.073C121.029 106.451 121.128 106.863 121.137 107.283L123.375 103.293C123.708 102.567 124.232 101.946 124.892 101.496C126.272 100.737 127.994 101.632 129.169 102.702C130.345 103.771 131.49 105.106 133.068 105.273L133.129 99.3342" fill="black"/>
<path d="M132.939 103.339C132.521 99.6804 133.416 95.9924 135.465 92.9328C134.782 99.0004 139.356 105.265 145.378 106.433C145.122 106.213 144.939 105.92 144.854 105.594C144.768 105.267 144.784 104.923 144.9 104.605C146.455 106.365 147.645 108.443 149.405 109.998C151.165 111.553 153.804 112.471 155.875 111.363C158.688 109.846 158.719 105.849 157.991 102.747C156.428 96.1247 153.222 90.0027 148.669 84.9463C147.257 83.2242 145.476 81.8403 143.459 80.8961C141.998 80.3559 140.463 80.0439 138.908 79.9708C134.6 79.6371 130.125 80.0087 126.265 81.9428C124.094 83.1336 122.059 84.5578 120.197 86.1901L109.579 94.8517C108.555 95.5858 107.68 96.5071 107 97.5669C106.543 98.4512 106.27 99.4186 106.196 100.411C105.925 103.247 106.45 106.102 107.713 108.655C108.975 111.209 110.924 113.36 113.341 114.867C113.291 112.626 113.909 110.42 115.115 108.53C116.32 106.639 118.06 105.149 120.114 104.249C120.434 104.519 120.694 104.854 120.876 105.232C121.057 105.61 121.157 106.022 121.168 106.441L123.398 102.467C123.728 101.739 124.253 101.117 124.915 100.669C126.295 99.9105 128.017 100.806 129.192 101.875C130.368 102.944 131.513 104.272 133.091 104.446L133.151 98.4998" fill="#3F3D56"/>
<path d="M143.512 244.13C141.563 243.144 109.328 248.173 109.328 248.173C109.328 248.173 104.019 246.656 91.1862 244.548C78.3531 242.439 77.534 229.894 77.534 229.894L76.1309 204.782L80.4617 200.99L99.0134 213.125C99.0134 213.125 99.3016 219.261 99.0134 220.368C98.8314 221.126 98.346 222.029 98.3915 222.643C98.4055 222.81 98.4741 222.967 98.5866 223.09C98.699 223.214 98.8491 223.297 99.0134 223.326C100.272 223.645 117.429 226.42 117.429 226.42C117.429 226.42 157.194 223.698 167.107 237.092C167.893 238.075 168.487 239.197 168.859 240.399C171.317 249.553 145.279 245.003 143.512 244.13Z" fill="#FBBEBE"/>
<path opacity="0.1" d="M168.882 240.452C167.365 241.127 166.425 241.612 166.425 241.612C166.425 241.612 152.196 241.195 144.202 238.298C136.208 235.401 126.492 235.916 126.492 235.916C126.492 235.916 93.1809 230.182 98.346 222.696C98.36 222.863 98.4286 223.02 98.5411 223.143C98.6535 223.267 98.8036 223.35 98.9679 223.379C100.227 223.698 117.383 226.474 117.383 226.474C117.383 226.474 157.149 223.751 167.062 237.145C167.872 238.123 168.489 239.245 168.882 240.452V240.452Z" fill="black"/>
<path d="M182.716 196.264C182.716 196.264 184.673 210.076 184.81 211.198C184.946 212.321 185.651 225.844 184.81 227.384C183.968 228.923 182.716 231.426 182.716 231.426C182.716 231.426 184.112 234.354 178.53 235.476C172.947 236.599 166.394 239.936 166.394 239.936C166.394 239.936 152.158 239.519 144.21 236.591C136.261 233.664 126.492 234.217 126.492 234.217C126.492 234.217 84.2084 226.959 102.351 218.1C120.493 209.242 133.326 221.24 133.326 221.24L153.554 219.989C153.554 219.989 161.093 215.377 163.186 215.802C164.664 215.99 166.165 215.748 167.509 215.104L167.653 200.451L182.716 196.264Z" fill="#FBBEBE"/>
<path opacity="0.1" d="M80.1431 162.362L76.093 162.149L63.8212 209.932C63.8212 209.932 77.0714 206.579 82.7825 209.932C88.4937 213.284 98.9679 213.974 98.9679 213.974L95.0619 175.885L80.1431 162.362Z" fill="black"/>
<path d="M80.1431 161.52L76.093 161.307L63.8212 209.09C63.8212 209.09 77.0714 205.737 82.7825 209.09C88.4937 212.442 98.9679 213.132 98.9679 213.132L95.0619 175.043L80.1431 161.52Z" fill="#67B9E8"/>
<path opacity="0.1" d="M172.955 171.986L178.53 173.245C178.53 173.245 192.766 193.724 193.881 194.869C194.996 196.014 188.571 200.178 185.924 200.178C183.277 200.178 170.3 201.695 166.531 205.199C162.761 208.703 164.331 191.069 164.331 190.667C164.331 190.265 169.011 179.139 169.011 179.139L172.955 171.986Z" fill="black"/>
<path d="M172.955 171.152L178.53 172.404C178.53 172.404 192.766 192.92 193.881 194.035C194.996 195.15 188.571 199.344 185.924 199.344C183.277 199.344 170.3 200.861 166.531 204.365C162.761 207.869 164.331 190.235 164.331 189.833C164.331 189.431 169.041 178.266 169.041 178.266L172.955 171.152Z" fill="#67B9E8"/>
<g opacity="0.1">
<path opacity="0.1" d="M135.427 93.0011C135.394 92.4195 135.407 91.8362 135.465 91.2566C134.31 92.9894 133.515 94.9368 133.129 96.9829V98.7425C133.129 98.7425 133.129 98.7046 133.129 98.6819V99.099C133.129 100.328 133.129 101.564 133.091 102.793H132.985V103.362C132.985 103.164 132.984 102.975 132.947 102.778C131.43 102.535 130.345 101.261 129.215 100.244C128.085 99.228 126.318 98.2571 124.937 99.0384C124.276 99.4867 123.751 100.109 123.42 100.836L121.168 104.81C121.158 104.392 121.059 103.981 120.877 103.604C120.695 103.227 120.435 102.894 120.114 102.626C118.059 103.525 116.318 105.014 115.112 106.905C113.906 108.796 113.289 111.002 113.341 113.244C111.268 111.946 109.535 110.173 108.283 108.072C107.032 105.971 106.298 103.603 106.143 101.162C106.011 103.887 106.609 106.598 107.874 109.015C109.139 111.432 111.026 113.468 113.341 114.913C113.291 112.671 113.909 110.465 115.115 108.575C116.32 106.685 118.06 105.195 120.114 104.294C120.434 104.565 120.694 104.899 120.876 105.277C121.057 105.655 121.157 106.067 121.168 106.486L123.398 102.512C123.728 101.785 124.253 101.163 124.915 100.715C126.295 99.9561 128.017 100.851 129.192 101.92C130.368 102.99 131.513 104.317 133.091 104.492C133.091 102.55 133.111 100.613 133.151 98.6819C133.523 96.6555 134.297 94.724 135.427 93.0011V93.0011Z" fill="black"/>
<path opacity="0.1" d="M132.863 100.639C132.901 100.123 132.962 99.6072 133.038 99.1218L133.121 97.0284C132.893 98.2175 132.806 99.4293 132.863 100.639Z" fill="black"/>
<path opacity="0.1" d="M155.875 109.687C153.804 110.794 151.165 109.869 149.405 108.322C147.645 106.775 146.455 104.689 144.9 102.929C144.785 103.248 144.769 103.593 144.854 103.921C144.939 104.249 145.122 104.543 145.378 104.765C145.226 104.765 145.082 104.689 144.938 104.651C146.455 106.395 147.661 108.443 149.405 109.96C151.149 111.477 153.804 112.433 155.875 111.325C157.945 110.218 158.537 107.624 158.355 105.098C158.218 107.086 157.505 108.807 155.875 109.687Z" fill="black"/>
<path opacity="0.1" d="M144.892 104.636C142.356 103.944 140.091 102.495 138.402 100.48C136.713 98.4657 135.68 95.9831 135.442 93.3651C135.01 99.319 139.5 105.288 145.378 106.433C145.127 106.216 144.947 105.929 144.861 105.609C144.774 105.288 144.785 104.95 144.892 104.636V104.636Z" fill="black"/>
</g>
</g>
<defs>
<linearGradient id="paint0_linear" x1="128.29" y1="509.156" x2="128.29" y2="71.0362" gradientUnits="userSpaceOnUse">
<stop stop-color="#808080" stop-opacity="0.25"/>
<stop offset="0.54" stop-color="#808080" stop-opacity="0.12"/>
<stop offset="1" stop-color="#808080" stop-opacity="0.1"/>
</linearGradient>
</defs>
</svg>
