<svg width="48" height="56" viewBox="0 0 48 56" fill="none" xmlns="http://www.w3.org/2000/svg">
<mask id="path-2-inside-1" fill="white">
<path fill-rule="evenodd" clip-rule="evenodd" d="M26.88 47.829C38.777 46.4062 48 36.2802 48 24C48 10.7452 37.2548 0 24 0C10.7452 0 0 10.7452 0 24C0 36.2802 9.22302 46.4062 21.12 47.829V52.8C21.12 54.3906 22.4094 55.68 24 55.68C25.5906 55.68 26.88 54.3906 26.88 52.8V47.829Z"/>
</mask>
<path fill-rule="evenodd" clip-rule="evenodd" d="M26.88 47.829C38.777 46.4062 48 36.2802 48 24C48 10.7452 37.2548 0 24 0C10.7452 0 0 10.7452 0 24C0 36.2802 9.22302 46.4062 21.12 47.829V52.8C21.12 54.3906 22.4094 55.68 24 55.68C25.5906 55.68 26.88 54.3906 26.88 52.8V47.829Z" fill="white"/>
<path d="M26.88 47.829L26.7613 46.8361L25.88 46.9414V47.829H26.88ZM21.12 47.829H22.12V46.9414L21.2387 46.8361L21.12 47.829ZM47 24C47 35.7678 38.1615 45.4727 26.7613 46.8361L26.9987 48.8219C39.3925 47.3397 49 36.7926 49 24H47ZM24 1C36.7025 1 47 11.2975 47 24H49C49 10.1929 37.8071 -1 24 -1V1ZM1 24C1 11.2975 11.2975 1 24 1V-1C10.1929 -1 -1 10.1929 -1 24H1ZM21.2387 46.8361C9.83852 45.4727 1 35.7678 1 24H-1C-1 36.7926 8.60753 47.3397 21.0012 48.8219L21.2387 46.8361ZM22.12 52.8V47.829H20.12V52.8H22.12ZM24 54.68C22.9617 54.68 22.12 53.8383 22.12 52.8H20.12C20.12 54.9429 21.8571 56.68 24 56.68V54.68ZM25.88 52.8C25.88 53.8383 25.0383 54.68 24 54.68V56.68C26.1429 56.68 27.88 54.9429 27.88 52.8H25.88ZM25.88 47.829V52.8H27.88V47.829H25.88Z" fill="#5B7389" mask="url(#path-2-inside-1)"/>
<circle cx="24" cy="24" r="19.66" stroke="#5B7389"/>
<path d="M22.3999 21.28H20.1599V13.44H17.9199V21.28H15.6799V13.44H13.4399V21.28C13.4399 23.6544 15.2991 25.5808 17.6399 25.7264V35.84H20.4399V25.7264C22.7807 25.5808 24.6399 23.6544 24.6399 21.28V13.44H22.3999V21.28ZM27.9999 17.92V26.88H30.7999V35.84H33.5999V13.44C30.5087 13.44 27.9999 15.9488 27.9999 17.92Z" fill="#5B7389"/>
</svg>
