<svg width="100" height="100" viewBox="0 0 100 100" fill="none" xmlns="http://www.w3.org/2000/svg">
<g clip-path="url(#clip0)">
<path d="M65.9122 47.32L63.2722 56.6H69.1122C71.8855 56.6 73.2722 58.0667 73.2722 61C73.2722 62.4933 72.8989 63.6667 72.1522 64.52C71.4589 65.32 70.4455 65.72 69.1122 65.72H60.6322L59.1122 70.84C58.6322 72.3867 57.8322 73.5867 56.7122 74.44C55.6455 75.24 54.4989 75.64 53.2722 75.64C52.1522 75.64 51.1922 75.2933 50.3922 74.6C49.5922 73.8533 49.1922 72.84 49.1922 71.56C49.1922 71.0267 49.2722 70.44 49.4322 69.8L50.6322 65.72H41.2722L39.7522 70.84C39.2722 72.3867 38.4722 73.5867 37.3522 74.44C36.2855 75.24 35.1389 75.64 33.9122 75.64C32.7922 75.64 31.8322 75.2933 31.0322 74.6C30.2322 73.8533 29.8322 72.84 29.8322 71.56C29.8322 71.0267 29.9122 70.44 30.0722 69.8L31.2722 65.72H28.9522C27.6189 65.72 26.5789 65.32 25.8322 64.52C25.0855 63.6667 24.7122 62.4933 24.7122 61C24.7122 59.56 25.0855 58.4667 25.8322 57.72C26.5789 56.9733 27.6189 56.6 28.9522 56.6H33.9122L36.6322 47.32H32.1522C30.8189 47.32 29.7789 46.92 29.0322 46.12C28.2855 45.2667 27.9122 44.0933 27.9122 42.6C27.9122 41.16 28.2855 40.0667 29.0322 39.32C29.7789 38.5733 30.8189 38.2 32.1522 38.2H39.2722L40.7922 32.92C41.2189 31.3733 41.9655 30.2267 43.0322 29.48C44.1522 28.68 45.3255 28.28 46.5522 28.28C47.7789 28.28 48.7922 28.6267 49.5922 29.32C50.4455 29.96 50.8722 30.84 50.8722 31.96C50.8722 32.44 50.7922 32.92 50.6322 33.4L49.2722 38.2H58.6322L60.1522 32.92C60.5789 31.3733 61.3255 30.2267 62.3922 29.48C63.5122 28.68 64.6855 28.28 65.9122 28.28C67.1389 28.28 68.1522 28.6267 68.9522 29.32C69.8055 29.96 70.2322 30.84 70.2322 31.96C70.2322 32.44 70.1522 32.92 69.9922 33.4L68.6322 38.2H72.3122C75.0855 38.2 76.4722 39.6667 76.4722 42.6C76.4722 44.0933 76.0989 45.2667 75.3522 46.12C74.6589 46.92 73.6455 47.32 72.3122 47.32H65.9122ZM55.9922 47.32H46.5522L43.9122 56.6H53.2722L55.9922 47.32Z" fill="#303240"/>
</g>
<defs>
<clipPath id="clip0">
<rect width="100" height="100" fill="white"/>
</clipPath>
</defs>
</svg>
